<svg width="220" height="63" viewBox="0 0 220 63" fill="none" xmlns="http://www.w3.org/2000/svg">
<g filter="url(#filter0_d_75_12)">
<path d="M28.952 32.4L28.632 34H19.48V32.72L21.752 32.016L19.992 27.44H11.192L9.496 31.92L12.088 32.4L11.768 34H4.504V32.72L6.776 31.92L14.328 11.28H18.392L26.712 31.856L28.952 32.4ZM12.056 24.88H19.16L15.512 15.536L12.056 24.88ZM30.713 19.312L30.553 17.68L37.785 16.656V19.344C38.5103 18.4693 39.3957 17.8187 40.441 17.392C41.4863 16.9653 42.4463 16.752 43.321 16.752C44.473 16.752 45.6037 16.976 46.713 17.424C47.8223 17.872 48.6437 18.672 49.177 19.824C50.073 18.8213 51.0437 18.064 52.089 17.552C53.1557 17.0187 54.2117 16.752 55.257 16.752C56.281 16.752 57.2837 16.944 58.265 17.328C59.2463 17.6907 60.057 18.2987 60.697 19.152C61.3583 20.0053 61.6997 21.168 61.721 22.64V31.856L64.121 32.304L63.801 34H54.745V32.88L57.241 31.92V23.92C57.241 22.5547 57.0277 21.5627 56.601 20.944C56.1743 20.3253 55.3637 20.016 54.169 20.016C53.3157 20.016 52.4623 20.1973 51.609 20.56C50.7557 20.9013 50.1157 21.3173 49.689 21.808C49.7103 21.9573 49.7317 22.1067 49.753 22.256C49.7743 22.384 49.785 22.5333 49.785 22.704V31.856L52.185 32.304L51.865 34H42.809V32.88L45.305 31.92V23.92C45.305 22.5547 45.0917 21.5627 44.665 20.944C44.2383 20.3253 43.4277 20.016 42.233 20.016C41.3797 20.016 40.5263 20.176 39.673 20.496C38.841 20.816 38.2117 21.2213 37.785 21.712V31.856L40.185 32.304L39.865 34H30.489V32.88L33.305 31.92V19.792L30.713 19.312ZM69.9125 26.448C69.9125 27.664 70.1792 28.6453 70.7125 29.392C71.2458 30.1387 71.9605 30.6933 72.8565 31.056C73.7738 31.3973 74.7658 31.568 75.8325 31.568C76.5792 31.568 77.3578 31.44 78.1685 31.184C79.0005 30.928 79.8218 30.5333 80.6325 30L81.6565 31.856C80.6112 32.6667 79.4805 33.2747 78.2645 33.68C77.0485 34.0853 75.9072 34.288 74.8405 34.288C73.6245 34.288 72.4512 34.128 71.3205 33.808C70.1898 33.488 69.1765 32.9867 68.2805 32.304C67.3845 31.6213 66.6698 30.736 66.1365 29.648C65.6245 28.5387 65.3685 27.1947 65.3685 25.616C65.3685 23.9733 65.6458 22.5867 66.2005 21.456C66.7765 20.3253 67.5125 19.4187 68.4085 18.736C69.3045 18.0533 70.2858 17.5627 71.3525 17.264C72.4192 16.944 73.4432 16.784 74.4245 16.784C76.2378 16.784 77.6992 17.2213 78.8085 18.096C79.9392 18.9707 80.7712 20.144 81.3045 21.616C81.8378 23.0667 82.1045 24.6773 82.1045 26.448H69.9125ZM78.3925 23.824C78.3925 22.6933 78.2005 21.7973 77.8165 21.136C77.4325 20.4533 76.9418 19.9627 76.3445 19.664C75.7472 19.344 75.1285 19.184 74.4885 19.184C73.7632 19.184 73.0592 19.3547 72.3765 19.696C71.7152 20.0373 71.1605 20.5493 70.7125 21.232C70.2858 21.9147 70.0512 22.7787 70.0085 23.824H78.3925ZM83.617 19.312L83.457 17.68L90.689 16.656V19.312C91.4143 18.4373 92.2997 17.7973 93.345 17.392C94.3903 16.9653 95.3503 16.752 96.225 16.752C97.249 16.752 98.2517 16.944 99.233 17.328C100.214 17.6907 101.025 18.2987 101.665 19.152C102.326 20.0053 102.668 21.168 102.689 22.64V31.856L105.089 32.304L104.769 34H95.713V32.88L98.209 31.92V23.92C98.209 22.5547 97.9957 21.5627 97.569 20.944C97.1423 20.3253 96.3317 20.016 95.137 20.016C94.2837 20.016 93.4303 20.176 92.577 20.496C91.745 20.816 91.1157 21.2213 90.689 21.712V31.856L93.089 32.304L92.769 34H83.393V32.88L86.209 31.92V19.792L83.617 19.312ZM117.586 31.792C117.095 32.56 116.38 33.1893 115.442 33.68C114.503 34.1493 113.554 34.384 112.594 34.384C111.036 34.384 109.778 34 108.818 33.232C107.858 32.4427 107.378 31.3227 107.378 29.872V19.472H104.85V18.032L107.858 17.072L109.106 13.2H111.858V17.36H116.978V19.44H111.858V28.624C111.858 29.7973 111.996 30.5973 112.274 31.024C112.572 31.4507 113.052 31.664 113.714 31.664C114.14 31.664 114.578 31.5787 115.026 31.408C115.474 31.2373 116.007 30.9493 116.626 30.544L117.586 31.792ZM126.625 16.72C128.545 16.72 130.188 17.1147 131.553 17.904C132.919 18.672 133.953 19.7067 134.657 21.008C135.383 22.288 135.745 23.696 135.745 25.232C135.745 26.9813 135.404 28.5387 134.721 29.904C134.039 31.2693 133.057 32.336 131.777 33.104C130.497 33.872 128.951 34.256 127.137 34.256C125.111 34.256 123.415 33.8613 122.049 33.072C120.705 32.2827 119.692 31.2267 119.009 29.904C118.348 28.56 118.017 27.0667 118.017 25.424C118.017 23.76 118.38 22.2773 119.105 20.976C119.831 19.6533 120.833 18.6187 122.113 17.872C123.415 17.104 124.919 16.72 126.625 16.72ZM127.105 31.92C128.044 31.92 128.823 31.6213 129.441 31.024C130.06 30.4267 130.529 29.648 130.849 28.688C131.169 27.728 131.329 26.6933 131.329 25.584C131.329 24.7733 131.255 23.984 131.105 23.216C130.977 22.4267 130.743 21.7227 130.401 21.104C130.06 20.464 129.58 19.952 128.961 19.568C128.364 19.184 127.596 18.992 126.657 18.992C125.74 18.992 124.961 19.2693 124.321 19.824C123.703 20.3787 123.233 21.1147 122.913 22.032C122.593 22.9493 122.433 23.9627 122.433 25.072C122.433 25.8613 122.497 26.6613 122.625 27.472C122.753 28.2827 122.988 29.0293 123.329 29.712C123.671 30.3733 124.14 30.9067 124.737 31.312C125.356 31.7173 126.145 31.92 127.105 31.92ZM137.436 19.312L137.276 17.68L144.508 16.656V19.312C145.233 18.4373 146.118 17.7973 147.164 17.392C148.209 16.9653 149.169 16.752 150.044 16.752C150.769 16.752 151.548 16.9333 152.38 17.296V22.928L150.14 23.216L148.956 20.016C148.102 20.016 147.249 20.176 146.396 20.496C145.564 20.816 144.934 21.2213 144.508 21.712V31.856L147.548 32.304L147.228 34H137.212V32.88L140.028 31.92V19.792L137.436 19.312ZM166.779 28.016L169.243 28.432L169.211 34H154.715V32.592L163.739 19.28H158.011L157.147 23.056L154.683 22.64L154.715 17.04H169.083V18.448L160.123 31.76H165.723L166.779 28.016ZM179.5 16.72C181.42 16.72 183.063 17.1147 184.428 17.904C185.794 18.672 186.828 19.7067 187.532 21.008C188.258 22.288 188.62 23.696 188.62 25.232C188.62 26.9813 188.279 28.5387 187.596 29.904C186.914 31.2693 185.932 32.336 184.652 33.104C183.372 33.872 181.826 34.256 180.012 34.256C177.986 34.256 176.29 33.8613 174.924 33.072C173.58 32.2827 172.567 31.2267 171.884 29.904C171.223 28.56 170.892 27.0667 170.892 25.424C170.892 23.76 171.255 22.2773 171.98 20.976C172.706 19.6533 173.708 18.6187 174.988 17.872C176.29 17.104 177.794 16.72 179.5 16.72ZM179.98 31.92C180.919 31.92 181.698 31.6213 182.316 31.024C182.935 30.4267 183.404 29.648 183.724 28.688C184.044 27.728 184.204 26.6933 184.204 25.584C184.204 24.7733 184.13 23.984 183.98 23.216C183.852 22.4267 183.618 21.7227 183.276 21.104C182.935 20.464 182.455 19.952 181.836 19.568C181.239 19.184 180.471 18.992 179.532 18.992C178.615 18.992 177.836 19.2693 177.196 19.824C176.578 20.3787 176.108 21.1147 175.788 22.032C175.468 22.9493 175.308 23.9627 175.308 25.072C175.308 25.8613 175.372 26.6613 175.5 27.472C175.628 28.2827 175.863 29.0293 176.204 29.712C176.546 30.3733 177.015 30.9067 177.612 31.312C178.231 31.7173 179.02 31.92 179.98 31.92ZM190.055 19.312L189.895 17.68L197.127 16.656V19.312C197.852 18.4373 198.737 17.7973 199.783 17.392C200.828 16.9653 201.788 16.752 202.663 16.752C203.687 16.752 204.689 16.944 205.671 17.328C206.652 17.6907 207.463 18.2987 208.103 19.152C208.764 20.0053 209.105 21.168 209.127 22.64V31.856L211.527 32.304L211.207 34H202.151V32.88L204.647 31.92V23.92C204.647 22.5547 204.433 21.5627 204.007 20.944C203.58 20.3253 202.769 20.016 201.575 20.016C200.721 20.016 199.868 20.176 199.015 20.496C198.183 20.816 197.553 21.2213 197.127 21.712V31.856L199.527 32.304L199.207 34H189.831V32.88L192.647 31.92V19.792L190.055 19.312Z" fill="url(#paint0_linear_75_12)"/>
<path d="M28.952 32.4L29.9326 32.5961L30.1208 31.6548L29.188 31.4282L28.952 32.4ZM28.632 34V35H29.4518L29.6126 34.1961L28.632 34ZM19.48 34H18.48V35H19.48V34ZM19.48 32.72L19.184 31.7648L18.48 31.983V32.72H19.48ZM21.752 32.016L22.048 32.9712L23.0691 32.6548L22.6853 31.657L21.752 32.016ZM19.992 27.44L20.9253 27.081L20.6788 26.44H19.992V27.44ZM11.192 27.44V26.44H10.5013L10.2568 27.0859L11.192 27.44ZM9.496 31.92L8.56077 31.566L8.13701 32.6853L9.31391 32.9033L9.496 31.92ZM12.088 32.4L13.0686 32.5961L13.2675 31.6014L12.2701 31.4167L12.088 32.4ZM11.768 34V35H12.5878L12.7486 34.1961L11.768 34ZM4.504 34H3.504V35H4.504V34ZM4.504 32.72L4.17188 31.7768L3.504 32.0119V32.72H4.504ZM6.776 31.92L7.10813 32.8632L7.55303 32.7066L7.71511 32.2636L6.776 31.92ZM14.328 11.28V10.28H13.6291L13.3889 10.9364L14.328 11.28ZM18.392 11.28L19.3191 10.9051L19.0663 10.28H18.392V11.28ZM26.712 31.856L25.7849 32.2309L25.9773 32.7066L26.476 32.8278L26.712 31.856ZM12.056 24.88L11.1181 24.5331L10.6199 25.88H12.056V24.88ZM19.16 24.88V25.88H20.6239L20.0915 24.5163L19.16 24.88ZM15.512 15.536L16.4435 15.1723L15.4867 12.7216L14.5741 15.1891L15.512 15.536ZM27.9714 32.2039L27.6514 33.8039L29.6126 34.1961L29.9326 32.5961L27.9714 32.2039ZM28.632 33H19.48V35H28.632V33ZM20.48 34V32.72H18.48V34H20.48ZM19.776 33.6752L22.048 32.9712L21.456 31.0608L19.184 31.7648L19.776 33.6752ZM22.6853 31.657L20.9253 27.081L19.0587 27.799L20.8187 32.375L22.6853 31.657ZM19.992 26.44H11.192V28.44H19.992V26.44ZM10.2568 27.0859L8.56077 31.566L10.4312 32.274L12.1272 27.7941L10.2568 27.0859ZM9.31391 32.9033L11.9059 33.3833L12.2701 31.4167L9.67809 30.9367L9.31391 32.9033ZM11.1074 32.2039L10.7874 33.8039L12.7486 34.1961L13.0686 32.5961L11.1074 32.2039ZM11.768 33H4.504V35H11.768V33ZM5.504 34V32.72H3.504V34H5.504ZM4.83613 33.6632L7.10813 32.8632L6.44388 30.9768L4.17188 31.7768L4.83613 33.6632ZM7.71511 32.2636L15.2671 11.6236L13.3889 10.9364L5.83689 31.5764L7.71511 32.2636ZM14.328 12.28H18.392V10.28H14.328V12.28ZM17.4649 11.6549L25.7849 32.2309L27.6391 31.4811L19.3191 10.9051L17.4649 11.6549ZM26.476 32.8278L28.716 33.3718L29.188 31.4282L26.948 30.8842L26.476 32.8278ZM12.056 25.88H19.16V23.88H12.056V25.88ZM20.0915 24.5163L16.4435 15.1723L14.5805 15.8997L18.2285 25.2437L20.0915 24.5163ZM14.5741 15.1891L11.1181 24.5331L12.9939 25.2269L16.4499 15.8829L14.5741 15.1891ZM30.713 19.312L29.7178 19.4096L29.7912 20.1583L30.5309 20.2953L30.713 19.312ZM30.553 17.68L30.4128 16.6899L29.4643 16.8242L29.5578 17.7776L30.553 17.68ZM37.785 16.656H38.785V15.5044L37.6448 15.6659L37.785 16.656ZM37.785 19.344H36.785V22.1165L38.5548 19.9823L37.785 19.344ZM40.441 17.392L40.0631 16.4662V16.4662L40.441 17.392ZM46.713 17.424L46.3385 18.3512V18.3512L46.713 17.424ZM49.177 19.824L48.2695 20.2441L48.9088 21.6249L49.9227 20.4903L49.177 19.824ZM52.089 17.552L52.5289 18.4501L52.5362 18.4464L52.089 17.552ZM58.265 17.328L57.9006 18.2592L57.9094 18.2627L57.9184 18.266L58.265 17.328ZM60.697 19.152L59.897 19.752L59.9017 19.7583L59.9066 19.7646L60.697 19.152ZM61.721 22.64H62.721V22.6328L62.7209 22.6255L61.721 22.64ZM61.721 31.856H60.721V32.6866L61.5375 32.839L61.721 31.856ZM64.121 32.304L65.1037 32.4894L65.2894 31.5048L64.3045 31.321L64.121 32.304ZM63.801 34V35H64.63L64.7837 34.1854L63.801 34ZM54.745 34H53.745V35H54.745V34ZM54.745 32.88L54.386 31.9467L53.745 32.1932V32.88H54.745ZM57.241 31.92L57.6 32.8533L58.241 32.6068V31.92H57.241ZM56.601 20.944L57.4242 20.3763V20.3763L56.601 20.944ZM51.609 20.56L51.9804 21.4885L51.9903 21.4845L52.0001 21.4803L51.609 20.56ZM49.689 21.808L48.9344 21.1518L48.6344 21.4968L48.6991 21.9494L49.689 21.808ZM49.753 22.256L48.7631 22.3974L48.7647 22.4089L48.7666 22.4204L49.753 22.256ZM49.785 31.856H48.785V32.6866L49.6015 32.839L49.785 31.856ZM52.185 32.304L53.1677 32.4894L53.3534 31.5048L52.3685 31.321L52.185 32.304ZM51.865 34V35H52.694L52.8477 34.1854L51.865 34ZM42.809 34H41.809V35H42.809V34ZM42.809 32.88L42.45 31.9467L41.809 32.1932V32.88H42.809ZM45.305 31.92L45.664 32.8533L46.305 32.6068V31.92H45.305ZM44.665 20.944L45.4882 20.3763L44.665 20.944ZM39.673 20.496L39.3219 19.5596L39.314 19.5627L39.673 20.496ZM37.785 21.712L37.0304 21.0558L36.785 21.338V21.712H37.785ZM37.785 31.856H36.785V32.6866L37.6015 32.839L37.785 31.856ZM40.185 32.304L41.1677 32.4894L41.3534 31.5048L40.3685 31.321L40.185 32.304ZM39.865 34V35H40.694L40.8477 34.1854L39.865 34ZM30.489 34H29.489V35H30.489V34ZM30.489 32.88L30.1663 31.9335L29.489 32.1644V32.88H30.489ZM33.305 31.92L33.6277 32.8665L34.305 32.6356V31.92H33.305ZM33.305 19.792H34.305V18.9602L33.4871 18.8087L33.305 19.792ZM31.7082 19.2144L31.5482 17.5824L29.5578 17.7776L29.7178 19.4096L31.7082 19.2144ZM30.6932 18.6701L37.9252 17.6461L37.6448 15.6659L30.4128 16.6899L30.6932 18.6701ZM36.785 16.656V19.344H38.785V16.656H36.785ZM38.5548 19.9823C39.1758 19.2334 39.9269 18.6819 40.8189 18.3178L40.0631 16.4662C38.8645 16.9554 37.8449 17.7052 37.0152 18.7057L38.5548 19.9823ZM40.8189 18.3178C41.7776 17.9265 42.6076 17.752 43.321 17.752V15.752C42.2851 15.752 41.1951 16.0041 40.0631 16.4662L40.8189 18.3178ZM43.321 17.752C44.3397 17.752 45.3435 17.9494 46.3385 18.3512L47.0875 16.4968C45.8638 16.0026 44.6063 15.752 43.321 15.752V17.752ZM46.3385 18.3512C47.1969 18.6979 47.8358 19.3073 48.2695 20.2441L50.0845 19.4039C49.4515 18.0367 48.4478 17.0461 47.0875 16.4968L46.3385 18.3512ZM49.9227 20.4903C50.7458 19.5691 51.616 18.8972 52.5289 18.4501L51.6491 16.6539C50.4713 17.2308 49.4002 18.0735 48.4313 19.1577L49.9227 20.4903ZM52.5362 18.4464C53.4837 17.9727 54.3875 17.752 55.257 17.752V15.752C54.0358 15.752 52.8277 16.0646 51.6418 16.6576L52.5362 18.4464ZM55.257 17.752C56.1527 17.752 57.0319 17.9193 57.9006 18.2592L58.6294 16.3968C57.5354 15.9687 56.4093 15.752 55.257 15.752V17.752ZM57.9184 18.266C58.7155 18.5606 59.3701 19.0494 59.897 19.752L61.497 18.552C60.7439 17.5479 59.7772 16.8207 58.6117 16.39L57.9184 18.266ZM59.9066 19.7646C60.3943 20.3939 60.7018 21.3216 60.7211 22.6545L62.7209 22.6255C62.6975 21.0144 62.3224 19.6168 61.4874 18.5394L59.9066 19.7646ZM60.721 22.64V31.856H62.721V22.64H60.721ZM61.5375 32.839L63.9375 33.287L64.3045 31.321L61.9045 30.873L61.5375 32.839ZM63.1383 32.1186L62.8183 33.8146L64.7837 34.1854L65.1037 32.4894L63.1383 32.1186ZM63.801 33H54.745V35H63.801V33ZM55.745 34V32.88H53.745V34H55.745ZM55.104 33.8133L57.6 32.8533L56.882 30.9867L54.386 31.9467L55.104 33.8133ZM58.241 31.92V23.92H56.241V31.92H58.241ZM58.241 23.92C58.241 22.4956 58.027 21.2503 57.4242 20.3763L55.7778 21.5117C56.0283 21.875 56.241 22.6137 56.241 23.92H58.241ZM57.4242 20.3763C56.7209 19.3565 55.4934 19.016 54.169 19.016V21.016C55.234 21.016 55.6278 21.2942 55.7778 21.5117L57.4242 20.3763ZM54.169 19.016C53.17 19.016 52.1841 19.229 51.2179 19.6397L52.0001 21.4803C52.7406 21.1656 53.4613 21.016 54.169 21.016V19.016ZM51.2376 19.6315C50.2939 20.009 49.4994 20.502 48.9344 21.1518L50.4436 22.4642C50.7319 22.1326 51.2174 21.7937 51.9804 21.4885L51.2376 19.6315ZM48.6991 21.9494C48.7123 22.0423 48.7178 22.0805 48.7311 22.1734C48.7311 22.1734 48.7391 22.2294 48.7391 22.2294C48.7391 22.2294 48.7471 22.2854 48.7471 22.2854C48.7471 22.2854 48.7551 22.3414 48.7551 22.3414C48.7551 22.3414 48.7631 22.3974 48.7631 22.3974L50.743 22.1146C50.7297 22.0217 50.7242 21.9835 50.7109 21.8906C50.7109 21.8906 50.7029 21.8346 50.7029 21.8346C50.7029 21.8346 50.695 21.7786 50.695 21.7786C50.695 21.7786 50.687 21.7226 50.687 21.7226C50.687 21.7226 50.679 21.6666 50.679 21.6666L48.6991 21.9494ZM48.7666 22.4204C48.7766 22.4802 48.785 22.5723 48.785 22.704H50.785C50.785 22.4944 50.7721 22.2878 50.7394 22.0916L48.7666 22.4204ZM48.785 22.704V31.856H50.785V22.704H48.785ZM49.6015 32.839L52.0015 33.287L52.3685 31.321L49.9685 30.873L49.6015 32.839ZM51.2023 32.1186L50.8823 33.8146L52.8477 34.1854L53.1677 32.4894L51.2023 32.1186ZM51.865 33H42.809V35H51.865V33ZM43.809 34V32.88H41.809V34H43.809ZM43.168 33.8133L45.664 32.8533L44.946 30.9867L42.45 31.9467L43.168 33.8133ZM46.305 31.92V23.92H44.305V31.92H46.305ZM46.305 23.92C46.305 22.4956 46.091 21.2503 45.4882 20.3763L43.8418 21.5117C44.0923 21.875 44.305 22.6137 44.305 23.92H46.305ZM45.4882 20.3763C44.7849 19.3565 43.5574 19.016 42.233 19.016V21.016C43.298 21.016 43.6918 21.2942 43.8418 21.5117L45.4882 20.3763ZM42.233 19.016C41.2518 19.016 40.2798 19.2005 39.3219 19.5597L40.0241 21.4323C40.7729 21.1515 41.5075 21.016 42.233 21.016V19.016ZM39.314 19.5627C38.3833 19.9206 37.5966 20.4046 37.0304 21.0558L38.5396 22.3682C38.8267 22.038 39.2987 21.7114 40.032 21.4293L39.314 19.5627ZM36.785 21.712V31.856H38.785V21.712H36.785ZM37.6015 32.839L40.0015 33.287L40.3685 31.321L37.9685 30.873L37.6015 32.839ZM39.2023 32.1186L38.8823 33.8146L40.8477 34.1854L41.1677 32.4894L39.2023 32.1186ZM39.865 33H30.489V35H39.865V33ZM31.489 34V32.88H29.489V34H31.489ZM30.8117 33.8265L33.6277 32.8665L32.9823 30.9735L30.1663 31.9335L30.8117 33.8265ZM34.305 31.92V19.792H32.305V31.92H34.305ZM33.4871 18.8087L30.8951 18.3287L30.5309 20.2953L33.1229 20.7753L33.4871 18.8087ZM69.9125 26.448V25.448H68.9125V26.448H69.9125ZM70.7125 29.392L69.8988 29.9732L70.7125 29.392ZM72.8565 31.056L72.4813 31.9829L72.4945 31.9883L72.5078 31.9932L72.8565 31.056ZM78.1685 31.184L77.8744 30.2282L77.8674 30.2304L78.1685 31.184ZM80.6325 30L81.5081 29.5169L80.9859 28.5705L80.0829 29.1646L80.6325 30ZM81.6565 31.856L82.2693 32.6462L82.9453 32.122L82.5321 31.3729L81.6565 31.856ZM78.2645 33.68L77.9483 32.7313L78.2645 33.68ZM71.3205 33.808L71.0482 34.7702L71.3205 33.808ZM68.2805 32.304L68.8865 31.5086L68.2805 32.304ZM66.1365 29.648L65.2285 30.0671L65.2334 30.0777L65.2386 30.0882L66.1365 29.648ZM66.2005 21.456L65.3095 21.0021L65.306 21.0088L65.3027 21.0156L66.2005 21.456ZM68.4085 18.736L67.8025 17.9406L68.4085 18.736ZM71.3525 17.264L71.6221 18.227L71.631 18.2245L71.6398 18.2218L71.3525 17.264ZM78.8085 18.096L78.1893 18.8813L78.1966 18.887L78.8085 18.096ZM81.3045 21.616L80.3643 21.9567L80.3659 21.9611L81.3045 21.616ZM82.1045 26.448V27.448H83.1045V26.448H82.1045ZM78.3925 23.824V24.824H79.3925V23.824H78.3925ZM77.8165 21.136L76.9448 21.6263L76.9517 21.6381L77.8165 21.136ZM76.3445 19.664L75.8723 20.5455L75.8847 20.5521L75.8973 20.5584L76.3445 19.664ZM72.3765 19.696L71.9293 18.8015L71.9179 18.8074L72.3765 19.696ZM70.7125 21.232L69.8764 20.6833L69.8704 20.6926L69.8645 20.702L70.7125 21.232ZM70.0085 23.824L69.0093 23.7832L68.9669 24.824H70.0085V23.824ZM68.9125 26.448C68.9125 27.8053 69.2104 29.0095 69.8988 29.9732L71.5262 28.8108C71.1479 28.2811 70.9125 27.5227 70.9125 26.448H68.9125ZM69.8988 29.9732C70.5485 30.8829 71.4191 31.553 72.4813 31.9829L73.2317 30.1291C72.5019 29.8336 71.9432 29.3944 71.5262 28.8108L69.8988 29.9732ZM72.5078 31.9932C73.5463 32.3796 74.6575 32.568 75.8325 32.568V30.568C74.8742 30.568 74.0014 30.415 73.2052 30.1188L72.5078 31.9932ZM75.8325 32.568C76.6944 32.568 77.5748 32.4202 78.4696 32.1376L77.8674 30.2304C77.1409 30.4598 76.464 30.568 75.8325 30.568V32.568ZM78.4626 32.1398C79.3947 31.853 80.3013 31.4149 81.1821 30.8354L80.0829 29.1646C79.3423 29.6518 78.6063 30.003 77.8744 30.2282L78.4626 32.1398ZM79.7569 30.4831L80.7809 32.3391L82.5321 31.3729L81.5081 29.5169L79.7569 30.4831ZM81.0437 31.0658C80.0847 31.8095 79.0537 32.3628 77.9483 32.7313L78.5807 34.6287C79.9072 34.1865 81.1377 33.5238 82.2693 32.6462L81.0437 31.0658ZM77.9483 32.7313C76.8143 33.1093 75.7805 33.288 74.8405 33.288V35.288C76.0338 35.288 77.2827 35.0614 78.5807 34.6287L77.9483 32.7313ZM74.8405 33.288C73.7134 33.288 72.6318 33.1399 71.5928 32.8458L71.0482 34.7702C72.2705 35.1161 73.5356 35.288 74.8405 35.288V33.288ZM71.5928 32.8458C70.5776 32.5585 69.6785 32.1119 68.8865 31.5086L67.6745 33.0994C68.6745 33.8614 69.8021 34.4175 71.0482 34.7702L71.5928 32.8458ZM68.8865 31.5086C68.1233 30.9271 67.5047 30.1671 67.0344 29.2078L65.2386 30.0882C65.835 31.3049 66.6457 32.3156 67.6745 33.0994L68.8865 31.5086ZM67.0445 29.2289C66.6081 28.2835 66.3685 27.0906 66.3685 25.616H64.3685C64.3685 27.2987 64.6409 28.7939 65.2285 30.0671L67.0445 29.2289ZM66.3685 25.616C66.3685 24.0813 66.6281 22.8548 67.0983 21.8964L65.3027 21.0156C64.6635 22.3185 64.3685 23.8653 64.3685 25.616H66.3685ZM67.0915 21.9099C67.6081 20.896 68.2523 20.1122 69.0145 19.5314L67.8025 17.9406C66.7727 18.7251 65.9449 19.7546 65.3095 21.0021L67.0915 21.9099ZM69.0145 19.5314C69.8117 18.924 70.6793 18.491 71.6221 18.227L71.0829 16.301C69.8924 16.6344 68.7973 17.1826 67.8025 17.9406L69.0145 19.5314ZM71.6398 18.2218C72.6256 17.9261 73.5526 17.784 74.4245 17.784V15.784C73.3337 15.784 72.2127 15.9619 71.0652 16.3062L71.6398 18.2218ZM74.4245 17.784C76.0777 17.784 77.3011 18.181 78.1893 18.8813L79.4277 17.3107C78.0972 16.2617 76.398 15.784 74.4245 15.784V17.784ZM78.1966 18.887C79.1632 19.6347 79.8892 20.6452 80.3643 21.9566L82.2447 21.2754C81.6532 19.6428 80.7151 18.3066 79.4204 17.305L78.1966 18.887ZM80.3659 21.9611C80.8532 23.2864 81.1045 24.7782 81.1045 26.448H83.1045C83.1045 24.5765 82.8225 22.8469 82.2431 21.2709L80.3659 21.9611ZM82.1045 25.448H69.9125V27.448H82.1045V25.448ZM79.3925 23.824C79.3925 22.5956 79.1864 21.5037 78.6813 20.6339L76.9517 21.6381C77.2146 22.0909 77.3925 22.7911 77.3925 23.824H79.3925ZM78.6881 20.6457C78.2235 19.8198 77.5969 19.1722 76.7917 18.7696L75.8973 20.5584C76.2868 20.7532 76.6415 21.0869 76.9449 21.6263L78.6881 20.6457ZM76.8167 18.7825C76.083 18.3894 75.303 18.184 74.4885 18.184V20.184C74.954 20.184 75.4114 20.2986 75.8723 20.5455L76.8167 18.7825ZM74.4885 18.184C73.5998 18.184 72.7433 18.3945 71.9293 18.8016L72.8237 20.5904C73.375 20.3148 73.9265 20.184 74.4885 20.184V18.184ZM71.9179 18.8074C71.089 19.2352 70.4095 19.8711 69.8764 20.6833L71.5485 21.7807C71.9115 21.2276 72.3413 20.8395 72.8351 20.5846L71.9179 18.8074ZM69.8645 20.702C69.3223 21.5696 69.057 22.6151 69.0093 23.7832L71.0077 23.8648C71.0453 22.9423 71.2494 22.2598 71.5605 21.762L69.8645 20.702ZM70.0085 24.824H78.3925V22.824H70.0085V24.824ZM83.617 19.312L82.6218 19.4096L82.6952 20.1583L83.4349 20.2953L83.617 19.312ZM83.457 17.68L83.3168 16.6899L82.3683 16.8242L82.4618 17.7776L83.457 17.68ZM90.689 16.656H91.689V15.5044L90.5488 15.6659L90.689 16.656ZM90.689 19.312H89.689V22.0845L91.4588 19.9503L90.689 19.312ZM93.345 17.392L93.7065 18.3244L93.7147 18.3212L93.7229 18.3178L93.345 17.392ZM99.233 17.328L98.8686 18.2592L98.8774 18.2627L98.8864 18.266L99.233 17.328ZM101.665 19.152L100.865 19.752L100.87 19.7583L100.875 19.7646L101.665 19.152ZM102.689 22.64H103.689V22.6328L103.689 22.6255L102.689 22.64ZM102.689 31.856H101.689V32.6866L102.506 32.839L102.689 31.856ZM105.089 32.304L106.072 32.4894L106.257 31.5048L105.272 31.321L105.089 32.304ZM104.769 34V35H105.598L105.752 34.1854L104.769 34ZM95.713 34H94.713V35H95.713V34ZM95.713 32.88L95.354 31.9467L94.713 32.1932V32.88H95.713ZM98.209 31.92L98.568 32.8533L99.209 32.6068V31.92H98.209ZM97.569 20.944L96.7458 21.5117L97.569 20.944ZM92.577 20.496L92.2259 19.5596L92.218 19.5627L92.577 20.496ZM90.689 21.712L89.9344 21.0558L89.689 21.338V21.712H90.689ZM90.689 31.856H89.689V32.6866L90.5055 32.839L90.689 31.856ZM93.089 32.304L94.0717 32.4894L94.2574 31.5048L93.2725 31.321L93.089 32.304ZM92.769 34V35H93.598L93.7517 34.1854L92.769 34ZM83.393 34H82.393V35H83.393V34ZM83.393 32.88L83.0703 31.9335L82.393 32.1644V32.88H83.393ZM86.209 31.92L86.5317 32.8665L87.209 32.6356V31.92H86.209ZM86.209 19.792H87.209V18.9602L86.3911 18.8087L86.209 19.792ZM84.6122 19.2144L84.4522 17.5824L82.4618 17.7776L82.6218 19.4096L84.6122 19.2144ZM83.5972 18.6701L90.8292 17.6461L90.5488 15.6659L83.3168 16.6899L83.5972 18.6701ZM89.689 16.656V19.312H91.689V16.656H89.689ZM91.4588 19.9503C92.0768 19.205 92.8223 18.6672 93.7065 18.3244L92.9835 16.4596C91.777 16.9275 90.7518 17.6697 89.9192 18.6737L91.4588 19.9503ZM93.7229 18.3178C94.6816 17.9265 95.5116 17.752 96.225 17.752V15.752C95.1891 15.752 94.0991 16.0041 92.9671 16.4662L93.7229 18.3178ZM96.225 17.752C97.1207 17.752 97.9999 17.9193 98.8686 18.2592L99.5974 16.3968C98.5034 15.9687 97.3773 15.752 96.225 15.752V17.752ZM98.8864 18.266C99.6835 18.5606 100.338 19.0494 100.865 19.752L102.465 18.552C101.712 17.5479 100.745 16.8207 99.5797 16.39L98.8864 18.266ZM100.875 19.7646C101.362 20.3939 101.67 21.3216 101.689 22.6545L103.689 22.6255C103.666 21.0144 103.29 19.6168 102.455 18.5394L100.875 19.7646ZM101.689 22.64V31.856H103.689V22.64H101.689ZM102.506 32.839L104.906 33.287L105.272 31.321L102.872 30.873L102.506 32.839ZM104.106 32.1186L103.786 33.8146L105.752 34.1854L106.072 32.4894L104.106 32.1186ZM104.769 33H95.713V35H104.769V33ZM96.713 34V32.88H94.713V34H96.713ZM96.072 33.8133L98.568 32.8533L97.85 30.9867L95.354 31.9467L96.072 33.8133ZM99.209 31.92V23.92H97.209V31.92H99.209ZM99.209 23.92C99.209 22.4956 98.995 21.2503 98.3922 20.3763L96.7458 21.5117C96.9963 21.875 97.209 22.6137 97.209 23.92H99.209ZM98.3922 20.3763C97.6889 19.3565 96.4614 19.016 95.137 19.016V21.016C96.202 21.016 96.5958 21.2942 96.7458 21.5117L98.3922 20.3763ZM95.137 19.016C94.1558 19.016 93.1838 19.2005 92.2259 19.5597L92.9281 21.4323C93.6769 21.1515 94.4115 21.016 95.137 21.016V19.016ZM92.218 19.5627C91.2873 19.9206 90.5006 20.4046 89.9344 21.0558L91.4436 22.3682C91.7307 22.038 92.2027 21.7114 92.936 21.4293L92.218 19.5627ZM89.689 21.712V31.856H91.689V21.712H89.689ZM90.5055 32.839L92.9055 33.287L93.2725 31.321L90.8725 30.873L90.5055 32.839ZM92.1063 32.1186L91.7863 33.8146L93.7517 34.1854L94.0717 32.4894L92.1063 32.1186ZM92.769 33H83.393V35H92.769V33ZM84.393 34V32.88H82.393V34H84.393ZM83.7157 33.8265L86.5317 32.8665L85.8863 30.9735L83.0703 31.9335L83.7157 33.8265ZM87.209 31.92V19.792H85.209V31.92H87.209ZM86.3911 18.8087L83.7991 18.3287L83.4349 20.2953L86.0269 20.7753L86.3911 18.8087ZM117.586 31.792L118.428 32.3304L118.806 31.7388L118.378 31.1823L117.586 31.792ZM115.442 33.68L115.889 34.5744L115.897 34.5704L115.905 34.5662L115.442 33.68ZM108.818 33.232L108.183 34.0045L108.193 34.0129L108.818 33.232ZM107.378 19.472H108.378V18.472H107.378V19.472ZM104.85 19.472H103.85V20.472H104.85V19.472ZM104.85 18.032L104.546 17.0793L103.85 17.3015V18.032H104.85ZM107.858 17.072L108.162 18.0247L108.652 17.8683L108.81 17.3788L107.858 17.072ZM109.106 13.2V12.2H108.377L108.154 12.8932L109.106 13.2ZM111.858 13.2H112.858V12.2H111.858V13.2ZM111.858 17.36H110.858V18.36H111.858V17.36ZM116.978 17.36H117.978V16.36H116.978V17.36ZM116.978 19.44V20.44H117.978V19.44H116.978ZM111.858 19.44V18.44H110.858V19.44H111.858ZM112.274 31.024L111.435 31.569L111.445 31.5834L111.455 31.5975L112.274 31.024ZM115.026 31.408L115.382 32.3425L115.026 31.408ZM116.626 30.544L117.418 29.9343L116.853 29.1995L116.078 29.7075L116.626 30.544ZM116.743 31.2536C116.361 31.8522 115.788 32.3707 114.978 32.7938L115.905 34.5662C116.973 34.008 117.83 33.2678 118.428 32.3304L116.743 31.2536ZM114.995 32.7856C114.182 33.1921 113.384 33.384 112.594 33.384V35.384C113.723 35.384 114.825 35.1066 115.889 34.5744L114.995 32.7856ZM112.594 33.384C111.202 33.384 110.182 33.043 109.442 32.4511L108.193 34.0129C109.373 34.957 110.871 35.384 112.594 35.384V33.384ZM109.453 32.4596C108.764 31.893 108.378 31.0794 108.378 29.872H106.378C106.378 31.566 106.952 32.9923 108.183 34.0044L109.453 32.4596ZM108.378 29.872V19.472H106.378V29.872H108.378ZM107.378 18.472H104.85V20.472H107.378V18.472ZM105.85 19.472V18.032H103.85V19.472H105.85ZM105.154 18.9847L108.162 18.0247L107.554 16.1193L104.546 17.0793L105.154 18.9847ZM108.81 17.3788L110.058 13.5068L108.154 12.8932L106.906 16.7652L108.81 17.3788ZM109.106 14.2H111.858V12.2H109.106V14.2ZM110.858 13.2V17.36H112.858V13.2H110.858ZM111.858 18.36H116.978V16.36H111.858V18.36ZM115.978 17.36V19.44H117.978V17.36H115.978ZM116.978 18.44H111.858V20.44H116.978V18.44ZM110.858 19.44V28.624H112.858V19.44H110.858ZM110.858 28.624C110.858 29.245 110.894 29.7996 110.976 30.2748C111.057 30.7379 111.192 31.1946 111.435 31.569L113.112 30.479C113.078 30.4267 113.005 30.2701 112.947 29.9332C112.891 29.6084 112.858 29.1763 112.858 28.624H110.858ZM111.455 31.5975C111.99 32.363 112.824 32.664 113.714 32.664V30.664C113.28 30.664 113.154 30.5383 113.093 30.4505L111.455 31.5975ZM113.714 32.664C114.276 32.664 114.834 32.5511 115.382 32.3425L114.67 30.4735C114.321 30.6062 114.005 30.664 113.714 30.664V32.664ZM115.382 32.3425C115.923 32.1363 116.524 31.8065 117.174 31.3805L116.078 29.7075C115.491 30.0922 115.024 30.3384 114.67 30.4735L115.382 32.3425ZM115.833 31.1537L116.793 32.4017L118.378 31.1823L117.418 29.9343L115.833 31.1537ZM131.553 17.904L131.053 18.7698L131.063 18.7756L131.553 17.904ZM134.657 21.008L133.778 21.4838L133.782 21.4925L133.787 21.501L134.657 21.008ZM134.721 29.904L133.827 29.4568V29.4568L134.721 29.904ZM131.777 33.104L132.292 33.9615L131.777 33.104ZM122.049 33.072L121.543 33.9343L121.549 33.9377L122.049 33.072ZM119.009 29.904L118.112 30.3455L118.116 30.3541L118.121 30.3626L119.009 29.904ZM119.105 20.976L119.979 21.4629L119.982 21.4568L119.105 20.976ZM122.113 17.872L122.617 18.7358L122.622 18.7332L122.113 17.872ZM129.441 31.024L130.136 31.7434L130.136 31.7434L129.441 31.024ZM130.849 28.688L131.798 29.0042V29.0042L130.849 28.688ZM131.105 23.216L130.118 23.3761L130.121 23.3915L130.124 23.4069L131.105 23.216ZM130.401 21.104L129.519 21.5746L129.522 21.5809L129.526 21.5871L130.401 21.104ZM128.961 19.568L128.42 20.4092L128.427 20.4135L128.434 20.4176L128.961 19.568ZM124.321 19.824L123.666 19.0683L123.66 19.0738L123.654 19.0794L124.321 19.824ZM122.913 22.032L123.857 22.3614L122.913 22.032ZM123.329 29.712L122.435 30.1593L122.441 30.1706L123.329 29.712ZM124.737 31.312L124.176 32.1395L124.182 32.144L124.189 32.1485L124.737 31.312ZM126.625 17.72C128.408 17.72 129.869 18.0856 131.053 18.7697L132.054 17.0383C130.506 16.1437 128.683 15.72 126.625 15.72V17.72ZM131.063 18.7756C132.274 19.4567 133.169 20.3584 133.778 21.4838L135.537 20.5322C134.738 19.0549 133.563 17.8873 132.044 17.0324L131.063 18.7756ZM133.787 21.501C134.424 22.6239 134.745 23.8609 134.745 25.232H136.745C136.745 23.5311 136.342 21.9521 135.527 20.515L133.787 21.501ZM134.745 25.232C134.745 26.8488 134.431 28.2493 133.827 29.4568L135.616 30.3512C136.377 28.828 136.745 27.1138 136.745 25.232H134.745ZM133.827 29.4568C133.227 30.6561 132.376 31.5787 131.263 32.2465L132.292 33.9615C133.739 33.0933 134.85 31.8826 135.616 30.3512L133.827 29.4568ZM131.263 32.2465C130.168 32.9031 128.808 33.256 127.137 33.256V35.256C129.093 35.256 130.826 34.8409 132.292 33.9615L131.263 32.2465ZM127.137 33.256C125.237 33.256 123.725 32.886 122.55 32.2063L121.549 33.9377C123.104 34.8367 124.984 35.256 127.137 35.256V33.256ZM122.556 32.2097C121.367 31.5114 120.49 30.5919 119.898 29.4454L118.121 30.3626C118.894 31.8614 120.044 33.054 121.543 33.9343L122.556 32.2097ZM119.907 29.4625C119.319 28.2687 119.017 26.9286 119.017 25.424H117.017C117.017 27.2047 117.377 28.8513 118.112 30.3455L119.907 29.4625ZM119.017 25.424C119.017 23.9101 119.346 22.5985 119.979 21.4629L118.232 20.4891C117.414 21.9561 117.017 23.6099 117.017 25.424H119.017ZM119.982 21.4568C120.622 20.2903 121.497 19.3893 122.617 18.7358L121.609 17.0082C120.17 17.848 119.039 19.0164 118.228 20.4952L119.982 21.4568ZM122.622 18.7332C123.75 18.0674 125.074 17.72 126.625 17.72V15.72C124.763 15.72 123.079 16.1406 121.605 17.0108L122.622 18.7332ZM127.105 32.92C128.277 32.92 129.313 32.538 130.136 31.7434L128.747 30.3046C128.332 30.7047 127.811 30.92 127.105 30.92V32.92ZM130.136 31.7434C130.889 31.0159 131.436 30.0901 131.798 29.0042L129.901 28.3718C129.623 29.2059 129.231 29.8374 128.747 30.3046L130.136 31.7434ZM131.798 29.0042C132.155 27.9329 132.329 26.7905 132.329 25.584H130.329C130.329 26.5961 130.183 27.5231 129.901 28.3718L131.798 29.0042ZM132.329 25.584C132.329 24.7116 132.249 23.8582 132.087 23.0251L130.124 23.4069C130.26 24.1098 130.329 24.8351 130.329 25.584H132.329ZM132.092 23.0559C131.948 22.1681 131.68 21.3524 131.277 20.6209L129.526 21.5871C129.805 22.093 130.006 22.6853 130.118 23.3761L132.092 23.0559ZM131.284 20.6334C130.859 19.8374 130.256 19.1949 129.489 18.7184L128.434 20.4176C128.904 20.7091 129.261 21.0906 129.519 21.5746L131.284 20.6334ZM129.502 18.7268C128.699 18.2107 127.727 17.992 126.657 17.992V19.992C127.465 19.992 128.029 20.1573 128.42 20.4092L129.502 18.7268ZM126.657 17.992C125.521 17.992 124.504 18.3425 123.666 19.0683L124.976 20.5797C125.419 20.1962 125.959 19.992 126.657 19.992V17.992ZM123.654 19.0794C122.889 19.7646 122.335 20.6529 121.969 21.7026L123.857 22.3614C124.131 21.5764 124.516 20.9927 124.989 20.5686L123.654 19.0794ZM121.969 21.7026C121.607 22.7397 121.433 23.8662 121.433 25.072H123.433C123.433 24.0591 123.579 23.159 123.857 22.3614L121.969 21.7026ZM121.433 25.072C121.433 25.9156 121.502 26.7677 121.637 27.628L123.613 27.316C123.493 26.5549 123.433 25.8071 123.433 25.072H121.433ZM121.637 27.628C121.78 28.5323 122.044 29.3782 122.435 30.1592L124.224 29.2648C123.932 28.6805 123.726 28.033 123.613 27.316L121.637 27.628ZM122.441 30.1706C122.856 30.9755 123.436 31.6375 124.176 32.1395L125.299 30.4845C124.844 30.1759 124.485 29.7712 124.218 29.2534L122.441 30.1706ZM124.189 32.1485C125.013 32.6881 126.008 32.92 127.105 32.92V30.92C126.283 30.92 125.699 30.7466 125.285 30.4755L124.189 32.1485ZM137.436 19.312L136.44 19.4096L136.514 20.1583L137.253 20.2953L137.436 19.312ZM137.275 17.68L137.135 16.6899L136.187 16.8242L136.28 17.7776L137.275 17.68ZM144.508 16.656H145.508V15.5044L144.367 15.6659L144.508 16.656ZM144.508 19.312H143.508V22.0845L145.277 19.9503L144.508 19.312ZM147.163 17.392L147.525 18.3244L147.533 18.3212L147.541 18.3178L147.163 17.392ZM152.38 17.296H153.38V16.641L152.779 16.3793L152.38 17.296ZM152.38 22.928L152.507 23.9198L153.38 23.8077V22.928H152.38ZM150.139 23.216L149.202 23.563L149.478 24.3093L150.267 24.2078L150.139 23.216ZM148.956 20.016L149.893 19.669L149.652 19.016H148.956V20.016ZM146.396 20.496L146.044 19.5596L146.037 19.5627L146.396 20.496ZM144.508 21.712L143.753 21.0558L143.508 21.338V21.712H144.508ZM144.508 31.856H143.508V32.7194L144.362 32.8453L144.508 31.856ZM147.548 32.304L148.53 32.4894L148.723 31.4665L147.693 31.3147L147.548 32.304ZM147.228 34V35H148.056L148.21 34.1854L147.228 34ZM137.212 34H136.212V35H137.212V34ZM137.212 32.88L136.889 31.9335L136.212 32.1644V32.88H137.212ZM140.027 31.92L140.35 32.8665L141.027 32.6356V31.92H140.027ZM140.027 19.792H141.027V18.9602L140.21 18.8087L140.027 19.792ZM138.431 19.2144L138.271 17.5824L136.28 17.7776L136.44 19.4096L138.431 19.2144ZM137.416 18.6701L144.648 17.6461L144.367 15.6659L137.135 16.6899L137.416 18.6701ZM143.508 16.656V19.312H145.508V16.656H143.508ZM145.277 19.9503C145.895 19.205 146.641 18.6672 147.525 18.3244L146.802 16.4596C145.596 16.9275 144.57 17.6697 143.738 18.6737L145.277 19.9503ZM147.541 18.3178C148.5 17.9265 149.33 17.752 150.044 17.752V15.752C149.008 15.752 147.918 16.0041 146.786 16.4662L147.541 18.3178ZM150.044 17.752C150.601 17.752 151.243 17.8916 151.98 18.2127L152.779 16.3793C151.852 15.9751 150.936 15.752 150.044 15.752V17.752ZM151.38 17.296V22.928H153.38V17.296H151.38ZM152.252 21.9362L150.012 22.2242L150.267 24.2078L152.507 23.9198L152.252 21.9362ZM151.077 22.869L149.893 19.669L148.018 20.363L149.202 23.563L151.077 22.869ZM148.956 19.016C147.974 19.016 147.002 19.2005 146.044 19.5597L146.747 21.4323C147.495 21.1515 148.23 21.016 148.956 21.016V19.016ZM146.037 19.5627C145.106 19.9206 144.319 20.4046 143.753 21.0558L145.262 22.3682C145.549 22.038 146.021 21.7114 146.754 21.4293L146.037 19.5627ZM143.508 21.712V31.856H145.508V21.712H143.508ZM144.362 32.8453L147.402 33.2933L147.693 31.3147L144.653 30.8667L144.362 32.8453ZM146.565 32.1186L146.245 33.8146L148.21 34.1854L148.53 32.4894L146.565 32.1186ZM147.228 33H137.212V35H147.228V33ZM138.212 34V32.88H136.212V34H138.212ZM137.534 33.8265L140.35 32.8665L139.705 30.9735L136.889 31.9335L137.534 33.8265ZM141.027 31.92V19.792H139.027V31.92H141.027ZM140.21 18.8087L137.618 18.3287L137.253 20.2953L139.845 20.7753L140.21 18.8087ZM166.779 28.016L166.945 27.03L166.06 26.8805L165.816 27.7445L166.779 28.016ZM169.242 28.432L170.242 28.4377L170.247 27.5875L169.409 27.446L169.242 28.432ZM169.21 34V35H170.205L170.21 34.0057L169.21 34ZM154.714 34H153.714V35H154.714V34ZM154.714 32.592L153.887 32.0309L153.714 32.285V32.592H154.714ZM163.738 19.28L164.566 19.8411L165.624 18.28H163.738V19.28ZM158.01 19.28V18.28H157.213L157.036 19.0569L158.01 19.28ZM157.146 23.056L156.98 24.042L157.911 24.1992L158.121 23.279L157.146 23.056ZM154.682 22.64L153.683 22.6343L153.678 23.4845L154.516 23.626L154.682 22.64ZM154.714 17.04V16.04H153.72L153.715 17.0343L154.714 17.04ZM169.083 17.04H170.083V16.04H169.083V17.04ZM169.083 18.448L169.912 19.0064L170.083 18.7532V18.448H169.083ZM160.122 31.76L159.293 31.2016L158.244 32.76H160.122V31.76ZM165.723 31.76V32.76H166.479L166.685 32.0315L165.723 31.76ZM166.612 29.002L169.076 29.418L169.409 27.446L166.945 27.03L166.612 29.002ZM168.243 28.4263L168.211 33.9943L170.21 34.0057L170.242 28.4377L168.243 28.4263ZM169.21 33H154.714V35H169.21V33ZM155.714 34V32.592H153.714V34H155.714ZM155.542 33.1531L164.566 19.8411L162.911 18.7189L153.887 32.0309L155.542 33.1531ZM163.738 18.28H158.01V20.28H163.738V18.28ZM157.036 19.0569L156.172 22.833L158.121 23.279L158.985 19.503L157.036 19.0569ZM157.313 22.07L154.849 21.654L154.516 23.626L156.98 24.042L157.313 22.07ZM155.682 22.6457L155.714 17.0457L153.715 17.0343L153.683 22.6343L155.682 22.6457ZM154.714 18.04H169.083V16.04H154.714V18.04ZM168.083 17.04V18.448H170.083V17.04H168.083ZM168.253 17.8896L159.293 31.2016L160.952 32.3184L169.912 19.0064L168.253 17.8896ZM160.122 32.76H165.723V30.76H160.122V32.76ZM166.685 32.0315L167.741 28.2875L165.816 27.7445L164.76 31.4885L166.685 32.0315ZM184.428 17.904L183.928 18.7698L183.938 18.7756L184.428 17.904ZM187.532 21.008L186.653 21.4838L186.657 21.4925L186.662 21.501L187.532 21.008ZM187.596 29.904L186.702 29.4568V29.4568L187.596 29.904ZM184.652 33.104L185.167 33.9615L184.652 33.104ZM174.924 33.072L174.418 33.9343L174.424 33.9377L174.924 33.072ZM171.884 29.904L170.987 30.3455L170.991 30.3541L170.996 30.3626L171.884 29.904ZM171.98 20.976L172.854 21.4629L172.857 21.4568L171.98 20.976ZM174.988 17.872L175.492 18.7358L175.497 18.7332L174.988 17.872ZM182.316 31.024L183.011 31.7434V31.7434L182.316 31.024ZM183.724 28.688L184.673 29.0042V29.0042L183.724 28.688ZM183.98 23.216L182.993 23.3761L182.996 23.3915L182.999 23.4069L183.98 23.216ZM183.276 21.104L182.394 21.5746L182.397 21.5809L182.401 21.5871L183.276 21.104ZM181.836 19.568L181.295 20.4092L181.302 20.4135L181.309 20.4176L181.836 19.568ZM177.196 19.824L176.541 19.0683L176.535 19.0738L176.529 19.0794L177.196 19.824ZM175.788 22.032L176.732 22.3614L175.788 22.032ZM176.204 29.712L175.31 30.1593L175.316 30.1706L176.204 29.712ZM177.612 31.312L177.051 32.1395L177.057 32.144L177.064 32.1485L177.612 31.312ZM179.5 17.72C181.283 17.72 182.744 18.0856 183.928 18.7697L184.929 17.0383C183.381 16.1437 181.558 15.72 179.5 15.72V17.72ZM183.938 18.7756C185.149 19.4567 186.044 20.3584 186.653 21.4838L188.412 20.5322C187.613 19.0549 186.438 17.8873 184.919 17.0324L183.938 18.7756ZM186.662 21.501C187.299 22.6239 187.62 23.8609 187.62 25.232H189.62C189.62 23.5311 189.217 21.9521 188.402 20.515L186.662 21.501ZM187.62 25.232C187.62 26.8488 187.306 28.2493 186.702 29.4568L188.491 30.3512C189.252 28.828 189.62 27.1138 189.62 25.232H187.62ZM186.702 29.4568C186.102 30.6561 185.251 31.5787 184.138 32.2465L185.167 33.9615C186.614 33.0933 187.725 31.8826 188.491 30.3512L186.702 29.4568ZM184.138 32.2465C183.043 32.9031 181.683 33.256 180.012 33.256V35.256C181.968 35.256 183.701 34.8409 185.167 33.9615L184.138 32.2465ZM180.012 33.256C178.112 33.256 176.6 32.886 175.425 32.2063L174.424 33.9377C175.979 34.8367 177.859 35.256 180.012 35.256V33.256ZM175.431 32.2097C174.242 31.5114 173.365 30.5919 172.773 29.4454L170.996 30.3626C171.769 31.8614 172.919 33.054 174.418 33.9343L175.431 32.2097ZM172.782 29.4625C172.194 28.2687 171.892 26.9286 171.892 25.424H169.892C169.892 27.2047 170.252 28.8513 170.987 30.3455L172.782 29.4625ZM171.892 25.424C171.892 23.9101 172.221 22.5985 172.854 21.4629L171.107 20.4891C170.289 21.9561 169.892 23.6099 169.892 25.424H171.892ZM172.857 21.4568C173.497 20.2903 174.372 19.3893 175.492 18.7358L174.484 17.0082C173.045 17.848 171.914 19.0164 171.103 20.4952L172.857 21.4568ZM175.497 18.7332C176.625 18.0674 177.949 17.72 179.5 17.72V15.72C177.638 15.72 175.954 16.1406 174.48 17.0108L175.497 18.7332ZM179.98 32.92C181.152 32.92 182.188 32.538 183.011 31.7434L181.622 30.3046C181.207 30.7047 180.686 30.92 179.98 30.92V32.92ZM183.011 31.7434C183.764 31.0159 184.311 30.0901 184.673 29.0042L182.776 28.3718C182.498 29.2059 182.105 29.8374 181.622 30.3046L183.011 31.7434ZM184.673 29.0042C185.03 27.9329 185.204 26.7905 185.204 25.584H183.204C183.204 26.5961 183.058 27.5231 182.776 28.3718L184.673 29.0042ZM185.204 25.584C185.204 24.7116 185.124 23.8582 184.962 23.0251L182.999 23.4069C183.135 24.1098 183.204 24.8351 183.204 25.584H185.204ZM184.967 23.0559C184.823 22.1681 184.555 21.3524 184.152 20.6209L182.401 21.5871C182.68 22.093 182.881 22.6853 182.993 23.3761L184.967 23.0559ZM184.159 20.6334C183.734 19.8374 183.131 19.1949 182.364 18.7184L181.309 20.4176C181.779 20.7091 182.136 21.0906 182.394 21.5746L184.159 20.6334ZM182.377 18.7268C181.574 18.2107 180.602 17.992 179.532 17.992V19.992C180.34 19.992 180.904 20.1573 181.295 20.4092L182.377 18.7268ZM179.532 17.992C178.396 17.992 177.379 18.3425 176.541 19.0683L177.851 20.5797C178.294 20.1962 178.834 19.992 179.532 19.992V17.992ZM176.529 19.0794C175.764 19.7646 175.21 20.6529 174.844 21.7026L176.732 22.3614C177.006 21.5764 177.391 20.9927 177.864 20.5686L176.529 19.0794ZM174.844 21.7026C174.482 22.7397 174.308 23.8662 174.308 25.072H176.308C176.308 24.0591 176.454 23.159 176.732 22.3614L174.844 21.7026ZM174.308 25.072C174.308 25.9156 174.377 26.7677 174.512 27.628L176.488 27.316C176.368 26.5549 176.308 25.8071 176.308 25.072H174.308ZM174.512 27.628C174.655 28.5323 174.919 29.3782 175.31 30.1592L177.099 29.2648C176.807 28.6805 176.601 28.033 176.488 27.316L174.512 27.628ZM175.316 30.1706C175.731 30.9755 176.311 31.6375 177.051 32.1395L178.174 30.4845C177.719 30.1759 177.36 29.7712 177.093 29.2534L175.316 30.1706ZM177.064 32.1485C177.888 32.6881 178.883 32.92 179.98 32.92V30.92C179.158 30.92 178.574 30.7466 178.16 30.4755L177.064 32.1485ZM190.055 19.312L189.059 19.4096L189.133 20.1583L189.872 20.2953L190.055 19.312ZM189.895 17.68L189.754 16.6899L188.806 16.8242L188.899 17.7776L189.895 17.68ZM197.126 16.656H198.126V15.5044L196.986 15.6659L197.126 16.656ZM197.126 19.312H196.126V22.0845L197.896 19.9503L197.126 19.312ZM199.783 17.392L200.144 18.3244L200.152 18.3212L200.16 18.3178L199.783 17.392ZM205.671 17.328L205.306 18.2592L205.315 18.2627L205.324 18.266L205.671 17.328ZM208.103 19.152L207.303 19.752L207.307 19.7583L207.312 19.7646L208.103 19.152ZM209.126 22.64H210.126V22.6328L210.126 22.6255L209.126 22.64ZM209.126 31.856H208.126V32.6866L208.943 32.839L209.126 31.856ZM211.527 32.304L212.509 32.4894L212.695 31.5048L211.71 31.321L211.527 32.304ZM211.206 34V35H212.035L212.189 34.1854L211.206 34ZM202.15 34H201.15V35H202.15V34ZM202.15 32.88L201.792 31.9467L201.15 32.1932V32.88H202.15ZM204.646 31.92L205.005 32.8533L205.646 32.6068V31.92H204.646ZM204.007 20.944L203.183 21.5117L204.007 20.944ZM199.014 20.496L198.663 19.5596L198.656 19.5627L199.014 20.496ZM197.126 21.712L196.372 21.0558L196.126 21.338V21.712H197.126ZM197.126 31.856H196.126V32.6866L196.943 32.839L197.126 31.856ZM199.527 32.304L200.509 32.4894L200.695 31.5048L199.71 31.321L199.527 32.304ZM199.206 34V35H200.035L200.189 34.1854L199.206 34ZM189.831 34H188.831V35H189.831V34ZM189.831 32.88L189.508 31.9335L188.831 32.1644V32.88H189.831ZM192.646 31.92L192.969 32.8665L193.646 32.6356V31.92H192.646ZM192.646 19.792H193.646V18.9602L192.829 18.8087L192.646 19.792ZM191.05 19.2144L190.89 17.5824L188.899 17.7776L189.059 19.4096L191.05 19.2144ZM190.035 18.6701L197.267 17.6461L196.986 15.6659L189.754 16.6899L190.035 18.6701ZM196.126 16.656V19.312H198.126V16.656H196.126ZM197.896 19.9503C198.514 19.205 199.26 18.6672 200.144 18.3244L199.421 16.4596C198.215 16.9275 197.189 17.6697 196.357 18.6737L197.896 19.9503ZM200.16 18.3178C201.119 17.9265 201.949 17.752 202.663 17.752V15.752C201.627 15.752 200.537 16.0041 199.405 16.4662L200.16 18.3178ZM202.663 17.752C203.558 17.752 204.437 17.9193 205.306 18.2592L206.035 16.3968C204.941 15.9687 203.815 15.752 202.663 15.752V17.752ZM205.324 18.266C206.121 18.5606 206.776 19.0494 207.303 19.752L208.902 18.552C208.149 17.5479 207.183 16.8207 206.017 16.39L205.324 18.266ZM207.312 19.7646C207.8 20.3939 208.107 21.3216 208.127 22.6545L210.126 22.6255C210.103 21.0144 209.728 19.6168 208.893 18.5394L207.312 19.7646ZM208.126 22.64V31.856H210.126V22.64H208.126ZM208.943 32.839L211.343 33.287L211.71 31.321L209.31 30.873L208.943 32.839ZM210.544 32.1186L210.224 33.8146L212.189 34.1854L212.509 32.4894L210.544 32.1186ZM211.206 33H202.15V35H211.206V33ZM203.15 34V32.88H201.15V34H203.15ZM202.509 33.8133L205.005 32.8533L204.288 30.9867L201.792 31.9467L202.509 33.8133ZM205.646 31.92V23.92H203.646V31.92H205.646ZM205.646 23.92C205.646 22.4956 205.432 21.2503 204.83 20.3763L203.183 21.5117C203.434 21.875 203.646 22.6137 203.646 23.92H205.646ZM204.83 20.3763C204.126 19.3565 202.899 19.016 201.574 19.016V21.016C202.639 21.016 203.033 21.2942 203.183 21.5117L204.83 20.3763ZM201.574 19.016C200.593 19.016 199.621 19.2005 198.663 19.5597L199.366 21.4323C200.114 21.1515 200.849 21.016 201.574 21.016V19.016ZM198.656 19.5627C197.725 19.9206 196.938 20.4046 196.372 21.0558L197.881 22.3682C198.168 22.038 198.64 21.7114 199.373 21.4293L198.656 19.5627ZM196.126 21.712V31.856H198.126V21.712H196.126ZM196.943 32.839L199.343 33.287L199.71 31.321L197.31 30.873L196.943 32.839ZM198.544 32.1186L198.224 33.8146L200.189 34.1854L200.509 32.4894L198.544 32.1186ZM199.206 33H189.831V35H199.206V33ZM190.831 34V32.88H188.831V34H190.831ZM190.153 33.8265L192.969 32.8665L192.324 30.9735L189.508 31.9335L190.153 33.8265ZM193.646 31.92V19.792H191.646V31.92H193.646ZM192.829 18.8087L190.237 18.3287L189.872 20.2953L192.464 20.7753L192.829 18.8087Z" fill="#110909"/>
<path d="M72.5718 43.1902C96.8038 52.3461 110.555 54.6474 135.772 46.8695" stroke="#FF6A00" stroke-opacity="0.6" stroke-width="2.59491"/>
<path d="M140.993 43.647L137.587 54.1478L122.458 43.4031L140.993 43.647Z" fill="#FDA566"/>
<rect x="11.1584" y="0.616726" width="14.2994" height="2" transform="rotate(15.7132 11.1584 0.616726)" stroke="black"/>
<path d="M72.0566 42.1633C96.5542 51.5817 109.284 53.908 128.642 48.2209" stroke="#110909"/>
<path d="M72 44C93.7094 53.0064 106.291 55.9553 131 49.6067" stroke="#110909"/>
<path d="M129 48.5L122.5 43.5H140.5L137.5 54L130.5 49.5" stroke="#110909"/>
</g>
<defs>
<filter id="filter0_d_75_12" x="-1" y="0" width="225" height="65.514" filterUnits="userSpaceOnUse" color-interpolation-filters="sRGB">
<feFlood flood-opacity="0" result="BackgroundImageFix"/>
<feColorMatrix in="SourceAlpha" type="matrix" values="0 0 0 0 0 0 0 0 0 0 0 0 0 0 0 0 0 0 127 0" result="hardAlpha"/>
<feOffset dy="4"/>
<feGaussianBlur stdDeviation="2"/>
<feComposite in2="hardAlpha" operator="out"/>
<feColorMatrix type="matrix" values="0 0 0 0 0 0 0 0 0 0 0 0 0 0 0 0 0 0 0.25 0"/>
<feBlend mode="normal" in2="BackgroundImageFix" result="effect1_dropShadow_75_12"/>
<feBlend mode="normal" in="SourceGraphic" in2="effect1_dropShadow_75_12" result="shape"/>
</filter>
<linearGradient id="paint0_linear_75_12" x1="111.5" y1="3" x2="111.5" y2="44" gradientUnits="userSpaceOnUse">
<stop stop-color="#1A1A1A"/>
<stop offset="0.427083" stop-color="#D58221"/>
</linearGradient>
</defs>
</svg>
